<svg viewBox="0 0 256 256" fill="none" xmlns="http://www.w3.org/2000/svg">
  <!-- 基础容器（适配各平台圆角规范） -->
  <path d="M128 256C57.3 256 0 198.7 0 128S57.3 0 128 0s128 57.3 128 128-57.3 128-128 128z" fill="url(#bg)"/>
  
  <!-- 核心符号：智能任务板 -->
  <g transform="translate(64 64)">
    <!-- 动态纸张 -->
    <path d="M0 0h128v128H0V0z" fill="url(#paper)" rx="16"/>
    
    <!-- AI生成波纹 -->
    <path d="M32 96c8-16 32-16 40 0s32 16 40 0" stroke="url(#ai)" stroke-width="8" stroke-linecap="round" opacity="0.9">
      <animate attributeName="opacity" values="0.9;0.7;0.9" dur="3s" repeatCount="indefinite"/>
    </path>
    
    <!-- 任务清单 -->
    <g stroke-linecap="round">
      <!-- 标题 -->
      <rect x="16" y="16" width="96" height="16" rx="8" fill="#3B82F6"/>
      <!-- 任务项 -->
      <path d="M24 48h80M24 64h64M24 80h48" stroke="#FFF" stroke-width="6"/>
      <!-- 智能对勾 -->
      <path d="M104 80l-24 24-12-12" stroke="#10B981" stroke-width="8" stroke-linejoin="round"/>
    </g>
    
    <!-- 数据粒子 -->
    <g opacity="0.8" class="particles">
      <circle cx="112" cy="112" r="2" fill="#3B82F6">
        <animate attributeName="cy" values="112;104;112" dur="1.8s" repeatCount="indefinite"/>
      </circle>
      <circle cx="96" cy="120" r="1.5" fill="#34D399">
        <animate attributeName="cx" values="96;104;96" dur="2.2s" repeatCount="indefinite"/>
      </circle>
    </g>
  </g>

  <!-- 品牌标识 -->
  <g transform="translate(192 192)">
    <circle r="16" fill="#F59E0B"/>
    <path d="M-6-4l12 12" stroke="#1E40AF" stroke-width="4" stroke-linecap="round"/>
    <path d="M6 4l12-12" stroke="#1E40AF" stroke-width="4" stroke-linecap="round"/>
  </g>

  <!-- 专业渐变系统 -->
  <defs>
    <!-- 背景渐变 -->
    <radialGradient id="bg" cx="0" cy="0" r="1" gradientTransform="scale(1.4) rotate(45)">
      <stop offset="0%" stop-color="#1D4ED8"/>
      <stop offset="100%" stop-color="#0F3A7D"/>
    </radialGradient>
    
    <!-- 纸张质感 -->
    <linearGradient id="paper" x1="0" y1="0" x2="1" y2="1">
      <stop offset="0%" stop-color="#F8FAFC"/>
      <stop offset="100%" stop-color="#F1F5F9"/>
    </linearGradient>
    
    <!-- AI能量流渐变 -->
    <linearGradient id="ai" x1="0" y1="0" x2="1" y2="0">
      <stop offset="0%" stop-color="#3B82F6"/>
      <stop offset="100%" stop-color="#10B981"/>
    </linearGradient>
  </defs>
</svg>