<svg viewBox="0 0 64 64" fill="none" xmlns="http://www.w3.org/2000/svg">
  <!-- 基础容器（适配各平台圆角规范） -->
  <path d="M32 64C14.3 64 0 49.7 0 32S14.3 0 32 0s32 14.3 32 32-14.3 32-32 32z" fill="url(#bg)"/>
  
  <!-- 核心符号：智能任务板 -->
  <g transform="translate(16 16)">
    <!-- 动态纸张 -->
    <path d="M0 0h32v32H0z" fill="url(#paper)" rx="4"/>
    
    <!-- AI生成波纹 -->
    <path d="M16 48c4-8 16-8 20 0s16 8 20 0" stroke="url(#ai)" stroke-width="4" stroke-linecap="round" opacity="0.9">
      <animate attributeName="opacity" values="0.9;0.7;0.9" dur="3s" repeatCount="indefinite"/>
    </path>
    
    <!-- 任务清单 -->
    <g stroke-linecap="round">
      <!-- 标题 -->
      <rect x="8" y="8" width="48" height="8" rx="4" fill="#3B82F6"/>
      <!-- 任务项 -->
      <path d="M16 24h48M16 32h32M16 40h24" stroke="#FFF" stroke-width="3"/>
      <!-- 智能对勾 -->
      <path d="M56 40l-16 16-8-8" stroke="#10B981" stroke-width="4" stroke-linejoin="round"/>
    </g>
    
    <!-- 数据粒子 -->
    <g opacity="0.8" class="particles">
      <circle cx="56" cy="56" r="1" fill="#3B82F6">
        <animate attributeName="cy" values="56;52;56" dur="1.8s" repeatCount="indefinite"/>
      </circle>
      <circle cx="48" cy="60" r="0.75" fill="#34D399">
        <animate attributeName="cx" values="48;52;48" dur="2.2s" repeatCount="indefinite"/>
      </circle>
    </g>
  </g>

  <!-- 品牌标识 -->
  <g transform="translate(96 96)">
    <circle r="8" fill="#F59E0B"/>
    <path d="M-4-2l8 8" stroke="#1E40AF" stroke-width="2" stroke-linecap="round"/>
    <path d="M4 2l8-8" stroke="#1E40AF" stroke-width="2" stroke-linecap="round"/>
  </g>

  <!-- 专业渐变系统 -->
  <defs>
    <!-- 背景渐变 -->
    <radialGradient id="bg" cx="0" cy="0" r="1" gradientTransform="scale(1.4) rotate(45)">
      <stop offset="0%" stop-color="#1D4ED8"/>
      <stop offset="100%" stop-color="#0F3A7D"/>
    </radialGradient>
    
    <!-- 纸张质感 -->
    <linearGradient id="paper" x1="0" y1="0" x2="1" y2="1">
      <stop offset="0%" stop-color="#F8FAFC"/>
      <stop offset="100%" stop-color="#F1F5F9"/>
    </linearGradient>
    
    <!-- AI能量流渐变 -->
    <linearGradient id="ai" x1="0" y1="0" x2="1" y2="0">
      <stop offset="0%" stop-color="#3B82F6"/>
      <stop offset="100%" stop-color="#10B981"/>
    </linearGradient>
  </defs>
</svg>