<svg width="256" height="256" viewBox="0 0 256 256" fill="none" xmlns="http://www.w3.org/2000/svg">
  <!-- 3D立体背景 -->
  <circle cx="128" cy="128" r="120" fill="url(#grad)" stroke="url(#borderGrad)" stroke-width="16"/>
  
  <!-- 卡片容器（增加立体投影） -->
  <rect x="64" y="80" width="128" height="96" rx="16" fill="white" stroke="#1E40AF" stroke-width="10" filter="url(#shadow)"/>
  
  <!-- 动态任务线条 -->
  <g class="task-lines">
    <path d="M80 96h96" stroke="url(#lineGrad)" stroke-width="12" stroke-linecap="round"/>
    <path d="M80 120h64" stroke="url(#lineGrad)" stroke-width="12" stroke-linecap="round"/>
    <path d="M80 144h48" stroke="url(#lineGrad)" stroke-width="12" stroke-linecap="round"/>
  </g>
  
  <!-- 智能波形（动态效果优化） -->
  <path d="M96 176c14.4 20 41.6 20 56 0s41.6-20 56 0" stroke="#34D399" stroke-width="12" stroke-linecap="round" stroke-dasharray="0 24 0 24">
    <animate attributeName="stroke-dashoffset" from="0" to="48" dur="2s" repeatCount="indefinite"/>
  </path>
  
  <!-- 立体对勾 -->
  <path d="M84 144l24 24 48-56" fill="none" stroke="url(#checkGrad)" stroke-width="14" stroke-linecap="round" stroke-linejoin="round">
    <animate attributeName="opacity" values="0;1" dur="0.5s" fill="freeze"/>
  </path>
  
  <!-- 精致蛇年标志 -->
  <g transform="translate(190 200) scale(0.9)">
    <path d="M20 0a20 20 0 1 1-40 0 20 20 0 0 1 40 0" fill="#FACC15" stroke="url(#snakeBorder)" stroke-width="3"/>
    <path d="M-8-4c2 3 6 5 8 4 3-2 4-6 2-8 -2-3-6-4-8-2 -3 2-4 6-2 8" fill="#1E40AF" transform="rotate(30)"/>
    <path d="M0 6q-4-2-4-6 0-4 4-6" stroke="#1E40AF" stroke-width="2"/>
  </g>
  
  <!-- 渐变及效果定义 -->
  <defs>
    <linearGradient id="grad" x1="0.7" y1="0.3" x2="0.3" y2="0.7">
      <stop offset="0%" stop-color="#60A5FA"/>
      <stop offset="100%" stop-color="#1D4ED8"/>
    </linearGradient>
    
    <linearGradient id="borderGrad" x1="0" y1="0" x2="1" y2="1">
      <stop offset="0%" stop-color="#BFDBFE"/>
      <stop offset="100%" stop-color="#1E40AF"/>
    </linearGradient>
    
    <linearGradient id="lineGrad" x1="0" y1="0" x2="1" y2="0">
      <stop offset="0%" stop-color="#3B82F6"/>
      <stop offset="100%" stop-color="#60A5FA"/>
    </linearGradient>
    
    <linearGradient id="checkGrad" x1="0" y1="0" x2="1" y2="0">
      <stop offset="0%" stop-color="#10B981"/>
      <stop offset="100%" stop-color="#34D399"/>
    </linearGradient>
    
    <linearGradient id="snakeBorder" x1="0" y1="0" x2="1" y2="1">
      <stop offset="0%" stop-color="#1E40AF"/>
      <stop offset="100%" stop-color="#3B82F6"/>
    </linearGradient>
    
    <filter id="shadow">
      <feDropShadow dx="4" dy="8" stdDeviation="8" flood-color="rgba(30,64,175,0.2)"/>
    </filter>
  </defs>
</svg>